<svg xmlns:xlink="http://www.w3.org/1999/xlink" viewBox="0 0 32 32" xmlns="http://www.w3.org/2000/svg" aria-hidden="true" role="presentation" focusable="false" style="display: block; height: 24px; width: 24px; fill: currentcolor;" width="32"  height="32" ><path d="M23 1a1 1 0 0 1 .993.883L24 2v4l-.02.196-2.906 14.536a4.997 4.997 0 0 1 2.317 3.39l.04.258.561 4.496a1 1 0 0 1-.874 1.117L23 30H9a1 1 0 0 1-1-1.006l.008-.118.562-4.496a4.996 4.996 0 0 1 2.356-3.648L8.18 7H7a1 1 0 0 0-.993.883L6 8v7H4V8a3 3 0 0 1 2.824-2.995L7 5h.999L8 2a1 1 0 0 1 .883-.993L9 1h14zm-9.499 21a3 3 0 0 0-2.92 2.45l-.027.178-.421 3.371h11.733l-.42-3.371a3 3 0 0 0-2.619-2.607L18.5 22h-4.999zM16 24a1 1 0 1 1 0 2 1 1 0 0 1 0-2zm5.78-17H10.219l2.6 13L15 19.999V11h2v8.999l2.18.001 2.6-13zm.219-4h-12v2h12V3z" fill="#222222"></path></svg>