<svg xmlns:xlink="http://www.w3.org/1999/xlink" viewBox="0 0 32 32" xmlns="http://www.w3.org/2000/svg" aria-hidden="true" role="presentation" focusable="false" style="display: block; height: 24px; width: 24px; fill: currentcolor;" width="32"  height="32" ><path d="M18 2a3 3 0 0 1 2.995 2.824L21 5v10h2a3 3 0 0 1 2.995 2.824L26 18v9a3 3 0 0 1-2.824 2.995L23 30h-9a3 3 0 0 1-2.995-2.824L11 27V17H9a3 3 0 0 1-2.995-2.824L6 14V5a3 3 0 0 1 2.824-2.995L9 2h9zm5 15h-9a1 1 0 0 0-.993.883L13 18v9a1 1 0 0 0 .883.993L14 28h9a1 1 0 0 0 .993-.883L24 27v-9a1 1 0 0 0-.883-.993L23 17zm-7 7a1 1 0 1 1 0 2 1 1 0 0 1 0-2zm5 0a1 1 0 1 1 0 2 1 1 0 0 1 0-2zm-5-5a1 1 0 1 1 0 2 1 1 0 0 1 0-2zm5 0a1 1 0 1 1 0 2 1 1 0 0 1 0-2zM18 4H9a1 1 0 0 0-.993.883L8 5v9a1 1 0 0 0 .883.993L9 15h9a1 1 0 0 0 .993-.883L19 14V5a1 1 0 0 0-.883-.993L18 4zm-2 7a1 1 0 1 1 0 2 1 1 0 0 1 0-2zm-5-5a1 1 0 1 1 0 2 1 1 0 0 1 0-2z" fill="#222222"></path></svg>