<svg xmlns:xlink="http://www.w3.org/1999/xlink" viewBox="0 0 32 32" xmlns="http://www.w3.org/2000/svg" aria-hidden="true" role="presentation" focusable="false" style="display: block; height: 24px; width: 24px; fill: currentcolor;" width="32"  height="32" ><path d="M28 2a2 2 0 0 1 1.995 1.85L30 4v24a2 2 0 0 1-1.85 1.995L28 30H4a2 2 0 0 1-1.995-1.85L2 28V4a2 2 0 0 1 1.85-1.995L4 2zM15 13H9v8H4v7h24v-7h-3v4H15zm-3 10a1 1 0 1 1 0 2 1 1 0 0 1 0-2zM28 4H4v15h3v-6a2 2 0 0 1 1.85-1.995L9 11h6a2 2 0 0 1 1.995 1.85L17 13v10h6v-2a2 2 0 0 1 1.85-1.995L25 19h3zM12 19a1 1 0 1 1 0 2 1 1 0 0 1 0-2zm0-4a1 1 0 1 1 0 2 1 1 0 0 1 0-2zm10-8a3 3 0 1 1 0 6 3 3 0 0 1 0-6zm0 2a1 1 0 1 0 0 2 1 1 0 0 0 0-2z" fill="#222222"></path></svg>