<svg xmlns:xlink="http://www.w3.org/1999/xlink" viewBox="0 0 32 32" xmlns="http://www.w3.org/2000/svg" aria-hidden="true" role="presentation" focusable="false" style="display: block; height: 24px; width: 24px; fill: currentcolor;" width="32"  height="32" ><path d="m16 1c4.2577297 0 7.6061002 4.44290329 7.9676272 10.0003215l.9151078-.0003215c1.1045695 0 2 .8954305 2 2l-.0030605.1106008-.009172.1102623-1.7777778 16c-.1066174.9595566-.8806101 1.6977936-1.8282962 1.7728448l-.1594713.0062921h-14.20991441c-.96546167 0-1.78465665-.6877341-1.96390315-1.6213359l-.02386432-.157801-.46927532-4.2208631h-1.438c-1.0543618 0-1.91816512-.8158778-1.99451426-1.8507377l-.00548574-.1492623v-9c0-2.6887547 2.12230671-4.88181811 4.78311038-4.99538049l.21688962-.00461951.29801537.00075392c.94105005-4.62384838 4.00271273-8.00075392 7.70198463-8.00075392zm8.215 18h-7.216l.001 4c0 1.0543618-.8158778 1.9181651-1.8507377 1.9945143l-.1492623.0054857h-6.55l.44504279 4h14.20991441zm-9.215 2h-10v2h10zm0-10h-7c-1.59768088 0-2.90366088 1.24892-2.99490731 2.8237272l-.00509269.1762728v5h10zm9.882735 2h-7.882735l-.001 4h7.439zm-8.882735-10c-2.5155248 0-4.806568 2.43876571-5.6544537 6.00043764l4.6544537-.00043764c1.0543618 0 1.9181651.81587779 1.9945143 1.8507377l.0054857.1492623 4.9630093.0001755c-.3387204-4.54720908-2.9579088-8.0001755-5.9630093-8.0001755z" fill="#222222"></path></svg>