<svg xmlns:xlink="http://www.w3.org/1999/xlink" viewBox="0 0 32 32" xmlns="http://www.w3.org/2000/svg" aria-hidden="true" role="presentation" focusable="false" style="display: block; height: 24px; width: 24px; fill: currentcolor;" width="32"  height="32" ><path d="m30.7810143 17.3461852c.0404342.0673904.0782664.1363082.1134129.2066012.7673165 1.534633.3185851 3.3882121-1.0395248 4.4059545l-.1607232.1136567-11.7341112 7.8227408c-1.0482526.6988351-2.3186579.9743849-3.5564884.7780685l-.264658-.0493079-11.55797978-2.47671c-.86789794-.1859781-1.50252469-.9187915-1.57418356-1.7906095l-.00675826-.1649953v-5.1915842c0-1.0543618.81587779-1.9181651 1.85073766-1.9945143l.14926234-.0054857 16.2408214-.0001031c.6752139 0 1.1644696.3199718 1.4637178.809882l5.8635526-3.5168243c1.454208-.8725249 3.3403977-.4009775 4.2129225 1.0532306zm-3.0731562.6036906-.1107748.0580646-6.6288651 3.9785317c-.022896.1035632-.0502803.2069982-.0821668.30978-.4757982 1.5336698-1.8012965 2.6144677-3.6520013 2.6984776l-.2340501.0052703h-5v-2h5c.3878763 0 .7218082-.0672878 1.0015656-.1900993l-.0015656-1.8099007h-15v5.1915842l11.5579798 2.47671c.7259277.1555559 1.481239.0360049 2.1211397-.3310383l.1715482-.1062181 11.7341111-7.8227407c.6030673-.4020449.8369928-1.1661036.57899-1.829816l-.058196-.1312675-.0395443-.0720369c-.2607673-.4346121-.7812053-.617496-1.243887-.4692947zm-16.7078581-16.9498758c3.1924277 0 6.0161326 1.88636423 7.2894426 4.698673l.1275574.300327 7.497216.001 2.9999976 3-3 3h-3.5002136l-2.414 2.4142136-1.842-1.8412136-.0953975.1891854c-1.2766838 2.3955812-3.716673 4.0236911-6.5003165 4.2182204l-.2891554.0149826-.2731306.0046116c-4.418278 0-8-3.581722-8-8s3.581722-8 8-8zm0 2c-3.3137085 0-6 2.6862915-6 6s2.6862915 6 6 6c2.5886163 0 4.8546019-1.6541536 5.6764176-4.0501962l.0749846-.2341604.2120002-.7119233 1.4493209-.00521032 1.5872767 1.58649022 1.5857864-1.585h3.4982136l1.001-1-1.001-1.001-8.1196215.00094923-.2127222-.71473925c-.7506594-2.52218928-3.0792117-4.28520998-5.7516563-4.28520998zm-3 5c.55228475 0 1 .44771525 1 1s-.44771525 1-1 1-1-.44771525-1-1 .44771525-1 1-1z" fill="#222222"></path></svg>