<svg viewBox="0 0 32 32" xmlns="http://www.w3.org/2000/svg" aria-hidden="true" role="presentation" focusable="false" style="display: block; height: 24px; width: 24px; fill: currentcolor; font-weigth: bold;"><path d="M28 2a2 2 0 0 1 1.995 1.85L30 4v24a2 2 0 0 1-1.85 1.995L28 30H4a2 2 0 0 1-1.995-1.85L2 28V4a2 2 0 0 1 1.85-1.995L4 2zm-5.92 19.995L22 22H10l-.08-.005L4 27.916V28h24v-.085zM28 4H4v21.084l12-11.998 12 12zM16 15.915L11.915 20h8.17zM22 7a3 3 0 1 1 0 6 3 3 0 0 1 0-6zm0 2a1 1 0 1 0 0 2 1 1 0 0 0 0-2z"/></svg>