<svg viewBox="0 0 32 32" xmlns="http://www.w3.org/2000/svg" aria-hidden="true" role="presentation" focusable="false" style="display: block; height: 24px; width: 24px; fill: currentcolor;"><path d="m23.0204313 3.00582063c-2.0815427.07751293-4.0715877.92728952-5.5789504 2.43470494l-1.4414809 1.44047443-1.4404171-1.44031065c-1.5845115-1.58335003-3.6983863-2.44068935-5.8929929-2.44068935-2.19416638 0-4.30898823.85772467-5.89177678 2.44051322-1.58391215 1.58390109-2.44156322 3.69775756-2.44156322 5.89278678 0 4.9282095 2.48419629 8.8512108 8.03256412 13.439053l.70954716.5770638.74171734.584714.77413928.5930892c.131739.0995864.2648394.199552.3993065.2999118l.823244.607011.8562953.6171982.8895983.6281103.9231529.6397472 1.5170817 1.0308345 1.3291121-.9009656 1.0589072-.7287753.6612652-.4625621.7010987-.498181.8533598-.6198244c7.3971739-5.4452801 11.0629604-10.1222564 11.0629604-15.8064246 0-2.19559863-.8569151-4.30921968-2.4404957-5.89278925-1.5843319-1.58317036-3.6982062-2.44051075-5.8928043-2.44051075zm.3128687 1.99417937c1.6695137 0 3.2735403.65055751 4.4788526 1.85498605 1.2043504 1.20434208 1.8544474 2.80783678 1.8544474 4.47831395 0 4.2987547-2.6123854 8.1213061-8.009061 12.474023l-.7197183.570835c-.2451788.1913357-.495635.3837563-.7513829.5773445l-.7831323.5843503-.8149664.5918523-.6943428.4933793-.6495182.4543204-1.2444781.8545952-.3599806-.2464089c-.3060116-.2102151-.6062613-.4182535-.900798-.6242279l-.8665202-.6118437c-.1415799-.1009795-.2817437-.2014711-.4204976-.3014889l-.8156535-.594534c-.1331387-.0981789-.2648797-.1959122-.3952291-.2932139l-.7654464-.5787439-.7323414-.5690616c-5.8464087-4.609638-8.4102832-8.3182024-8.4102832-12.7811772 0-1.66972745.65069601-3.27350087 1.85577431-4.47857075 1.20389067-1.20389067 2.80861035-1.85472925 4.47756569-1.85472925 1.6695226 0 3.2735495.6505567 4.4788626 1.85498605l2.8542663 2.8556887 2.8559829-2.85594303c1.2038387-1.20388075 2.8086117-1.85473172 4.4775982-1.85473172z"></path></svg>