<svg xmlns:xlink="http://www.w3.org/1999/xlink" viewBox="0 0 32 32" xmlns="http://www.w3.org/2000/svg" aria-hidden="true" role="presentation" focusable="false" style="display: block; height: 24px; width: 24px; fill: currentcolor;" width="32"  height="32" ><path d="M25 2a5 5 0 0 1 4.995 4.783L30 7v18a5 5 0 0 1-4.783 4.995L25 30H7a5 5 0 0 1-4.995-4.783L2 25V7a5 5 0 0 1 4.783-4.995L7 2zm0 2H7a3 3 0 0 0-2.995 2.824L4 7v4l2-.001V6h20v20H6v-5.001L4 21v4a3 3 0 0 0 2.824 2.995L7 28h18a3 3 0 0 0 2.995-2.824L28 25V7a3 3 0 0 0-2.824-2.995zm-1 4H8v16h16zm-8 3a5 5 0 1 1 0 10 5 5 0 0 1 0-10zm0 2a3 3 0 1 0 0 6 3 3 0 0 0 0-6zm-10-.001L4 13v6l2-.001z" fill="#222222"></path></svg>